<svg width="16" height="16" viewBox="0 0 16 16" fill="none" xmlns="http://www.w3.org/2000/svg">
    <path fill-rule="evenodd" clip-rule="evenodd" d="M8 15C11.866 15 15 11.866 15 8C15 4.13401 11.866 1 8 1C4.13401 1 1 4.13401 1 8C1 11.866 4.13401 15 8 15Z" fill="white" stroke="#D5D5D5"/>
    <path fill-rule="evenodd" clip-rule="evenodd" d="M8.81584 4.78863C8.65215 4.94801 8.44968 5.02771 8.20845 5.02771C7.96722 5.02771 7.76476 4.94801 7.60107 4.78863C7.43738 4.62924 7.35553 4.43324 7.35553 4.20063C7.35553 3.97663 7.43738 3.78494 7.60107 3.62555C7.76476 3.46617 7.96722 3.38647 8.20845 3.38647C8.44968 3.38647 8.65215 3.46617 8.81584 3.62555C8.97953 3.78494 9.06138 3.97663 9.06138 4.20063C9.06138 4.43324 8.97953 4.62924 8.81584 4.78863ZM8.6543 12.7298C8.52937 12.816 8.38076 12.8591 8.20845 12.8591C8.04476 12.8591 7.8983 12.816 7.76906 12.7298C7.63983 12.6437 7.57522 12.5101 7.57522 12.3292V6.47506C7.57522 6.29413 7.63983 6.16059 7.76906 6.07444C7.8983 5.98829 8.04476 5.94521 8.20845 5.94521C8.38076 5.94521 8.52937 5.98829 8.6543 6.07444C8.77922 6.16059 8.84168 6.29413 8.84168 6.47506V12.3292C8.84168 12.5101 8.77922 12.6437 8.6543 12.7298Z" fill="#666666"/>
</svg>
