<svg width="23" height="21" viewBox="0 0 23 21" fill="none" xmlns="http://www.w3.org/2000/svg">
<g clip-path="url(#clip0_1_460)">
<path d="M11.0841 3.57812C11.9945 3.57812 12.7331 2.83948 12.7331 1.92906C12.7331 1.01864 11.9945 0.279999 11.0841 0.279999C10.1736 0.279999 9.435 1.01864 9.435 1.92906C9.435 2.83948 10.1736 3.57812 11.0841 3.57812ZM14.3307 8.70052L13.5302 8.29513L13.1969 7.28508C12.6919 5.75282 11.2833 4.68093 9.68579 4.6775C8.44899 4.67406 7.76532 5.02449 6.48043 5.54326C5.73835 5.84215 5.13026 6.40901 4.77296 7.13048L4.54278 7.59771C4.2748 8.14053 4.49124 8.80015 5.03063 9.07156C5.56657 9.34297 6.21932 9.1231 6.49073 8.58028L6.72091 8.11305C6.84116 7.87256 7.04042 7.6836 7.28778 7.58397L8.20851 7.21293L7.6863 9.29831C7.50765 10.0129 7.70005 10.7722 8.1982 11.3184L10.2561 13.5653C10.5035 13.8367 10.6787 14.163 10.768 14.5169L11.3967 17.0352C11.5444 17.6226 12.1422 17.9834 12.7297 17.8356C13.3172 17.6879 13.6779 17.0901 13.5302 16.5027L12.7675 13.445C12.6782 13.0912 12.5029 12.7613 12.2556 12.4934L10.6924 10.7859L11.2833 8.42568L11.4723 8.99255C11.6544 9.54567 12.046 10.0026 12.5613 10.2637L13.3618 10.6691C13.8978 10.9405 14.5505 10.7206 14.8219 10.1778C15.0865 9.63843 14.87 8.97193 14.3307 8.70052ZM6.46668 13.5343C6.35675 13.8126 6.19184 14.0634 5.97884 14.273L4.26106 15.9942C3.83162 16.4236 3.83162 17.1211 4.26106 17.5505C4.69051 17.9799 5.38449 17.9799 5.81393 17.5505L7.85464 15.5098C8.06421 15.3002 8.22912 15.0494 8.34249 14.7711L8.80629 13.6099C6.90643 11.5383 7.47673 12.1739 7.17784 11.765L6.46668 13.5343Z" fill="#323232"/>
</g>
<defs>
<clipPath id="clip0_1_460">
<rect width="17.59" height="17.59" fill="white" transform="translate(0.639999 0.279999)"/>
</clipPath>
</defs>
</svg>
