<svg width="22" height="22" viewBox="0 0 22 22" fill="none" xmlns="http://www.w3.org/2000/svg">
<g clip-path="url(#clip0_1_412)">
<path d="M14.4339 14.0387C15.8173 12.5014 16.5459 10.4844 16.4646 8.4174C16.3833 6.35044 15.4985 4.39694 13.9987 2.97309C12.4989 1.54924 10.5026 0.767617 8.43521 0.794735C6.36782 0.821853 4.39273 1.65557 2.93073 3.11827C1.46874 4.58096 0.635423 6.557 0.608318 8.62539C0.581213 10.6938 1.36246 12.691 2.78563 14.1915C4.20879 15.6921 6.16135 16.5773 8.22732 16.6586C10.2933 16.74 12.3093 16.011 13.846 14.627L19.9186 20.7028C19.9971 20.7786 20.1021 20.8205 20.2111 20.8196C20.3201 20.8186 20.4244 20.7749 20.5015 20.6977C20.5786 20.6206 20.6223 20.5163 20.6233 20.4072C20.6242 20.2981 20.5823 20.193 20.5066 20.1146L14.4339 14.0387ZM8.57021 15.8327C7.17217 15.8327 5.80553 15.4179 4.6431 14.6409C3.48068 13.8638 2.57468 12.7593 2.03967 11.467C1.50467 10.1748 1.36469 8.75286 1.63743 7.38102C1.91017 6.00919 2.58339 4.74908 3.57195 3.76004C4.56051 2.77101 5.82002 2.09746 7.19119 1.82459C8.56237 1.55172 9.98363 1.69176 11.2752 2.22703C12.5669 2.76229 13.6708 3.66873 14.4475 4.83171C15.2242 5.9947 15.6388 7.36199 15.6388 8.7607C15.6366 10.6356 14.8912 12.4331 13.566 13.7589C12.2409 15.0847 10.4442 15.8305 8.57021 15.8327Z" fill="black"/>
</g>
<defs>
<clipPath id="clip0_1_412">
<rect width="20.79" height="20.8" fill="white" transform="translate(0.670013 0.856674)"/>
</clipPath>
</defs>
</svg>
