<svg width="22" height="28" viewBox="0 0 22 28" fill="none" xmlns="http://www.w3.org/2000/svg">
<path fill-rule="evenodd" clip-rule="evenodd" d="M18.4194 4.95468H3.45059C3.34031 4.95468 3.23455 4.99849 3.15658 5.07647C3.0786 5.15444 3.03479 5.2602 3.03479 5.37048C3.03479 5.48076 3.0786 5.58652 3.15658 5.6645C3.23455 5.74247 3.34031 5.78628 3.45059 5.78628H18.4194C18.5297 5.78628 18.6354 5.74247 18.7134 5.6645C18.7914 5.58652 18.8352 5.48076 18.8352 5.37048C18.8352 5.2602 18.7914 5.15444 18.7134 5.07647C18.6354 4.99849 18.5297 4.95468 18.4194 4.95468Z" fill="#575757"/>
<path fill-rule="evenodd" clip-rule="evenodd" d="M16.7562 8.28108H5.1138C5.00352 8.28108 4.89776 8.32489 4.81978 8.40287C4.74181 8.48084 4.698 8.58661 4.698 8.69688C4.698 8.80716 4.74181 8.91292 4.81978 8.9909C4.89776 9.06888 5.00352 9.11268 5.1138 9.11268H16.7562C16.8665 9.11268 16.9722 9.06888 17.0502 8.9909C17.1282 8.91292 17.172 8.80716 17.172 8.69688C17.172 8.58661 17.1282 8.48084 17.0502 8.40287C16.9722 8.32489 16.8665 8.28108 16.7562 8.28108Z" fill="#575757"/>
<path fill-rule="evenodd" clip-rule="evenodd" d="M15.0937 11.6075H6.77701C6.66672 11.6075 6.56095 11.6513 6.48297 11.7293C6.40499 11.8073 6.36118 11.913 6.36118 12.0233C6.36118 12.1336 6.40499 12.2394 6.48297 12.3174C6.56095 12.3953 6.66672 12.4392 6.77701 12.4392H15.0937C15.204 12.4392 15.3097 12.3953 15.3877 12.3174C15.4657 12.2394 15.5095 12.1336 15.5095 12.0233C15.5095 11.913 15.4657 11.8073 15.3877 11.7293C15.3097 11.6513 15.204 11.6075 15.0937 11.6075Z" fill="#575757"/>
<path fill-rule="evenodd" clip-rule="evenodd" d="M13.4302 14.9339H8.44022C8.32993 14.9339 8.22416 14.9777 8.14618 15.0557C8.06819 15.1337 8.02438 15.2394 8.02438 15.3497C8.02438 15.46 8.06819 15.5658 8.14618 15.6438C8.22416 15.7217 8.32993 15.7656 8.44022 15.7656H13.4302C13.5405 15.7656 13.6463 15.7217 13.7243 15.6438C13.8022 15.5658 13.8461 15.46 13.8461 15.3497C13.8461 15.2394 13.8022 15.1337 13.7243 15.0557C13.6463 14.9777 13.5405 14.9339 13.4302 14.9339Z" fill="#575757"/>
<path fill-rule="evenodd" clip-rule="evenodd" d="M11.7668 18.2603H10.1034C9.99314 18.2603 9.88737 18.3041 9.80939 18.3821C9.7314 18.4601 9.68759 18.5658 9.68759 18.6761C9.68759 18.7864 9.7314 18.8922 9.80939 18.9702C9.88737 19.0481 9.99314 19.092 10.1034 19.092H11.7668C11.877 19.092 11.9828 19.0481 12.0608 18.9702C12.1388 18.8922 12.1826 18.7864 12.1826 18.6761C12.1826 18.5658 12.1388 18.4601 12.0608 18.3821C11.9828 18.3041 11.877 18.2603 11.7668 18.2603Z" fill="#575757"/>
</svg>
