<svg width="23" height="21" viewBox="0 0 23 21" fill="none" xmlns="http://www.w3.org/2000/svg">
<g clip-path="url(#clip0_1_470)">
<path d="M15.6978 8.97157C14.9126 8.96951 14.1557 8.67819 13.5718 8.15328C12.9945 8.68195 12.2395 8.97409 11.4568 8.97164C10.6776 8.96846 9.92706 8.67737 9.34946 8.15434C8.77209 8.68218 8.0175 8.97386 7.23522 8.97157C6.45406 8.96841 5.70178 8.67588 5.12371 8.15047C4.53925 8.67704 3.78102 8.96941 2.99434 8.97157C2.63944 8.97157 1.97053 8.90825 1.97053 8.79806V16.111C1.97053 16.3909 2.08172 16.6594 2.27965 16.8573C2.47758 17.0552 2.74602 17.1664 3.02593 17.1664H4.08133V11.5376C4.08133 11.351 4.15546 11.172 4.28741 11.0401C4.41936 10.9081 4.59832 10.834 4.78493 10.834H8.30293C8.48954 10.834 8.6685 10.9081 8.80045 11.0401C8.9324 11.172 9.00653 11.351 9.00653 11.5376V17.1664H15.6907C15.9706 17.1664 16.2391 17.0552 16.437 16.8573C16.6349 16.6594 16.7461 16.3909 16.7461 16.111V8.79651C16.7461 8.90972 16.0636 8.97157 15.6978 8.97157ZM13.5799 15.7592H11.4691C11.3758 15.7592 11.2863 15.7221 11.2204 15.6562C11.1544 15.5902 11.1173 15.5007 11.1173 15.4074C11.1173 15.3141 11.1544 15.2246 11.2204 15.1586C11.2863 15.0927 11.3758 15.0556 11.4691 15.0556H13.5799C13.6732 15.0556 13.7627 15.0927 13.8287 15.1586C13.8947 15.2246 13.9317 15.3141 13.9317 15.4074C13.9317 15.5007 13.8947 15.5902 13.8287 15.6562C13.7627 15.7221 13.6732 15.7592 13.5799 15.7592ZM13.9317 12.9448C13.9317 13.1314 13.8576 13.3104 13.7257 13.4423C13.5937 13.5743 13.4147 13.6484 13.2281 13.6484H11.8209C11.6343 13.6484 11.4554 13.5743 11.3234 13.4423C11.1915 13.3104 11.1173 13.1314 11.1173 12.9448V11.5376C11.1173 11.351 11.1915 11.172 11.3234 11.0401C11.4554 10.9081 11.6343 10.834 11.8209 10.834H13.2281C13.4147 10.834 13.5937 10.9081 13.7257 11.0401C13.8576 11.172 13.9317 11.351 13.9317 11.5376V12.9448ZM15.7863 1.6872H3.5905L3.89924 0.76112C3.94594 0.621008 4.03554 0.499144 4.15536 0.412793C4.27517 0.326442 4.41912 0.279983 4.56681 0.279999H14.8101C14.9578 0.279998 15.1017 0.326463 15.2215 0.412813C15.3413 0.499163 15.4309 0.62102 15.4776 0.76112L15.7863 1.6872ZM18.1111 6.38253C17.9928 6.86041 17.735 7.29229 17.3705 7.62327C17.0061 7.95426 16.5515 8.16939 16.0644 8.24131C15.5774 8.31324 15.08 8.2387 14.6354 8.02719C14.1909 7.81568 13.8193 7.47675 13.5678 7.05349C13.3531 7.42296 13.0451 7.72959 12.6747 7.94272C12.3043 8.15585 11.8844 8.26803 11.457 8.26803C11.0297 8.26803 10.6098 8.15585 10.2394 7.94272C9.86897 7.72959 9.56099 7.42296 9.34623 7.05349C9.13146 7.42296 8.82348 7.72959 8.45307 7.94272C8.08265 8.15585 7.66278 8.26803 7.23543 8.26803C6.80807 8.26803 6.3882 8.15585 6.01779 7.94272C5.64737 7.72959 5.33939 7.42296 5.12463 7.05349C4.88586 7.4553 4.53855 7.78159 4.12263 7.99484C3.7067 8.2081 3.23904 8.29966 2.77341 8.259C2.30777 8.21835 1.86306 8.04712 1.49039 7.76502C1.11772 7.48291 0.83221 7.10137 0.666688 6.66425C0.580599 6.42604 0.54814 6.17175 0.571625 5.91955C0.59511 5.66734 0.673961 5.42343 0.802554 5.2052L2.98027 2.3908H16.3104L18.0038 5.32439C18.1536 5.65607 18.1913 6.02753 18.1111 6.38253Z" fill="#323232"/>
</g>
<defs>
<clipPath id="clip0_1_470">
<rect width="17.59" height="17.59" fill="white" transform="translate(0.563332 0.279999)"/>
</clipPath>
</defs>
</svg>
