<svg width="26" height="22" viewBox="0 0 26 22" fill="none" xmlns="http://www.w3.org/2000/svg">
<g clip-path="url(#clip0_1_448)">
<path d="M11.0616 0.880005C9.18693 0.880005 7.38901 1.62473 6.06339 2.95035C4.73777 4.27597 3.99304 6.0739 3.99304 7.9486C3.99304 12.0873 8.13707 18.6735 10.0792 21.1856C10.1951 21.3362 10.344 21.4582 10.5145 21.5422C10.6849 21.6261 10.8724 21.6699 11.0624 21.67C11.2524 21.6702 11.44 21.6267 11.6106 21.543C11.7811 21.4592 11.9302 21.3374 12.0463 21.187C13.9889 18.6815 18.1302 12.1123 18.1302 7.9486C18.1302 7.02034 17.9474 6.10117 17.5922 5.24357C17.2369 4.38597 16.7163 3.60673 16.0599 2.95035C15.4035 2.29397 14.6243 1.7733 13.7667 1.41807C12.9091 1.06284 11.9899 0.880005 11.0616 0.880005ZM11.3891 20.6774C11.3508 20.7275 11.3015 20.7681 11.2449 20.7961C11.1884 20.8241 11.1261 20.8386 11.0631 20.8386C11 20.8386 10.9377 20.8241 10.8812 20.7961C10.8246 20.7681 10.7753 20.7275 10.737 20.6774C8.80801 18.1818 4.82464 11.7874 4.82464 7.9486C4.82464 6.29445 5.48175 4.70804 6.65142 3.53838C7.82108 2.36872 9.40749 1.7116 11.0616 1.7116C12.7158 1.7116 14.3022 2.36872 15.4719 3.53838C16.6415 4.70804 17.2986 6.29445 17.2986 7.9486C17.2986 11.8086 13.3173 18.1912 11.3891 20.6774Z" fill="#323232"/>
<path d="M11.0619 4.20641C10.4862 4.20641 9.92338 4.37712 9.4447 4.69697C8.96601 5.01682 8.59292 5.47143 8.37261 6.00331C8.15229 6.5352 8.09465 7.12047 8.20696 7.68512C8.31928 8.24977 8.59651 8.76843 9.0036 9.17552C9.41069 9.5826 9.92935 9.85984 10.494 9.97215C11.0586 10.0845 11.6439 10.0268 12.1758 9.80651C12.7077 9.58619 13.1623 9.2131 13.4821 8.73442C13.802 8.25573 13.9727 7.69295 13.9727 7.11724C13.9727 6.34524 13.666 5.60486 13.1201 5.05897C12.5743 4.51308 11.8339 4.20641 11.0619 4.20641ZM11.0619 9.19641C10.6507 9.19641 10.2487 9.07447 9.90675 8.84601C9.56483 8.61755 9.29834 8.29283 9.14097 7.91291C8.9836 7.53299 8.94243 7.11494 9.02265 6.71162C9.10288 6.3083 9.3009 5.93783 9.59168 5.64705C9.88245 5.35627 10.2529 5.15825 10.6562 5.07802C11.0596 4.9978 11.4776 5.03897 11.8575 5.19634C12.2375 5.35371 12.5622 5.6202 12.7906 5.96212C13.0191 6.30404 13.141 6.70602 13.141 7.11724C13.1404 7.66848 12.9211 8.19695 12.5314 8.58673C12.1416 8.97652 11.6131 9.19578 11.0619 9.19641Z" fill="#323232"/>
</g>
<defs>
<clipPath id="clip0_1_448">
<rect width="20.79" height="20.79" fill="white" transform="translate(0.666656 0.880005)"/>
</clipPath>
</defs>
</svg>
